<svg width="117" height="9" viewBox="0 0 117 9" fill="none" xmlns="http://www.w3.org/2000/svg">
<path d="M7.12067 6.72871C6.79236 7.32824 6.30701 7.7993 5.67893 8.12762C5.03658 8.45593 4.28002 8.62722 3.395 8.62722H0.839844V0.576385H3.395C4.28002 0.576385 5.05085 0.733406 5.67893 1.06172C6.30701 1.39003 6.79236 1.84682 7.12067 2.46062C7.44899 3.07443 7.606 3.77388 7.606 4.6018C7.606 5.41545 7.44899 6.12918 7.12067 6.72871ZM5.70747 6.88573C6.26417 6.3433 6.53541 5.58675 6.53541 4.6018C6.53541 3.61686 6.26417 2.86031 5.70747 2.31788C5.15076 1.77544 4.35138 1.50423 3.29507 1.50423H1.85337V7.69938H3.29507C4.35138 7.69938 5.15076 7.42816 5.70747 6.88573Z" fill="#292F36"/>
<path d="M12.9014 1.41858V4.17357H15.9562V4.97294H12.9014V7.78503H16.2988V8.62722H11.8594V0.576385H16.2988V1.41858H12.9014Z" fill="#292F36"/>
<path d="M25.321 7.59956C25.1354 7.92788 24.8642 8.1991 24.493 8.39894C24.1219 8.59878 23.6651 8.71298 23.1084 8.71298C22.5803 8.71298 22.0949 8.61306 21.681 8.42749C21.267 8.22764 20.9387 7.9707 20.6818 7.62811C20.4391 7.28552 20.2963 6.90011 20.2535 6.47187H21.3669C21.3955 6.70027 21.4668 6.92866 21.5953 7.14278C21.7238 7.3569 21.9236 7.54247 22.1663 7.68521C22.409 7.82796 22.7087 7.89933 23.0656 7.89933C23.5224 7.89933 23.8793 7.78513 24.1219 7.52819C24.3646 7.27125 24.493 6.97148 24.493 6.58607C24.493 6.25776 24.4074 5.98654 24.2361 5.7867C24.0648 5.58685 23.8507 5.41556 23.608 5.30136C23.3654 5.18717 23.0085 5.0587 22.5803 4.91595C22.0664 4.74466 21.6667 4.58764 21.3527 4.44489C21.0386 4.30215 20.7817 4.07375 20.5675 3.77399C20.3534 3.47422 20.2393 3.08881 20.2393 2.60348C20.2393 2.18951 20.3392 1.81838 20.539 1.49006C20.7389 1.17602 21.0243 0.919081 21.4097 0.747787C21.7809 0.576492 22.2377 0.490845 22.7373 0.490845C23.5224 0.490845 24.1647 0.676416 24.6215 1.06183C25.0926 1.44724 25.3495 1.93257 25.4352 2.5321H24.3218C24.2647 2.21806 24.0934 1.93257 23.8364 1.68991C23.5652 1.44724 23.2083 1.31877 22.7515 1.31877C22.3376 1.31877 21.995 1.43297 21.7524 1.64708C21.4954 1.8612 21.3812 2.17524 21.3812 2.56065C21.3812 2.87469 21.4669 3.13163 21.6239 3.3172C21.7952 3.51705 21.995 3.65979 22.2377 3.77399C22.4804 3.88818 22.8229 4.00238 23.2369 4.14513C23.7508 4.31642 24.1647 4.47344 24.493 4.63046C24.8071 4.78748 25.0783 5.01587 25.2924 5.31564C25.5065 5.6154 25.6207 6.02937 25.6207 6.54325C25.5922 6.91439 25.5066 7.27125 25.321 7.59956Z" fill="#292F36"/>
<path d="M30.8878 0.576385V8.62722H29.8457V0.576385H30.8878Z" fill="#292F36"/>
<path d="M41.4223 1.1903C42.0646 1.66136 42.4929 2.28943 42.707 3.08881H41.6079C41.4223 2.60347 41.094 2.20379 40.6514 1.9183C40.2089 1.61853 39.6808 1.47578 39.067 1.47578C38.5246 1.47578 38.0249 1.60425 37.5967 1.8612C37.1684 2.11814 36.8259 2.475 36.569 2.94606C36.3263 3.41712 36.1978 3.97383 36.1978 4.61618C36.1978 5.27281 36.3263 5.8438 36.569 6.31486C36.8116 6.78591 37.1685 7.15705 37.611 7.414C38.0535 7.67094 38.5674 7.7994 39.1526 7.7994C39.6522 7.7994 40.0947 7.68521 40.5087 7.48537C40.9227 7.27125 41.251 6.95721 41.5222 6.55752C41.7934 6.15783 41.9362 5.6725 41.9933 5.13007H38.8243V4.35924H42.864V5.31564C42.7926 5.95799 42.5928 6.52897 42.2645 7.05713C41.9362 7.58529 41.4937 7.98497 40.937 8.28474C40.3802 8.5845 39.7521 8.74152 39.0384 8.74152C38.2676 8.74152 37.5824 8.57023 36.9829 8.22764C36.3834 7.88505 35.9266 7.39972 35.5983 6.77164C35.2699 6.15784 35.0986 5.44411 35.0986 4.64473C35.0986 3.84536 35.2699 3.13163 35.5983 2.51783C35.9266 1.90402 36.3976 1.40442 36.9829 1.06183C37.5681 0.719237 38.2533 0.533664 39.0241 0.533664C39.9948 0.505115 40.7799 0.733512 41.4223 1.1903Z" fill="#292F36"/>
<path d="M53.3983 8.62722H52.3563L48.1738 2.26078V8.62722H47.1318V0.576385H48.1738L52.3563 6.94283V0.576385H53.3983V8.62722Z" fill="#292F36"/>
<path d="M68.4157 7.59956C68.2301 7.92788 67.9589 8.1991 67.5878 8.39894C67.2166 8.59878 66.7599 8.71298 66.2032 8.71298C65.675 8.71298 65.1897 8.61306 64.7757 8.42749C64.3618 8.22764 64.0334 7.9707 63.7765 7.62811C63.5338 7.28552 63.3911 6.90011 63.3483 6.47187H64.4616C64.4902 6.70027 64.5616 6.92866 64.6901 7.14278C64.8186 7.3569 65.0183 7.54247 65.261 7.68521C65.5037 7.82796 65.8035 7.89933 66.1603 7.89933C66.6171 7.89933 66.9739 7.78513 67.2166 7.52819C67.4593 7.27125 67.5878 6.97148 67.5878 6.58607C67.5878 6.25776 67.5021 5.98654 67.3308 5.7867C67.1595 5.58685 66.9454 5.41556 66.7028 5.30136C66.4601 5.18717 66.1033 5.0587 65.675 4.91595C65.1611 4.74466 64.7614 4.58764 64.4474 4.44489C64.1333 4.30215 63.8764 4.07375 63.6623 3.77399C63.4482 3.47422 63.334 3.08881 63.334 2.60348C63.334 2.18951 63.4339 1.81838 63.6337 1.49006C63.8335 1.17602 64.1191 0.919081 64.5045 0.747787C64.8756 0.576492 65.3324 0.490845 65.832 0.490845C66.6171 0.490845 67.2595 0.676416 67.7163 1.06183C68.1873 1.44724 68.4443 1.93257 68.5299 2.5321H67.4165C67.3594 2.21806 67.188 1.93257 66.9311 1.68991C66.6599 1.44724 66.3031 1.31877 65.8463 1.31877C65.4324 1.31877 65.0897 1.43297 64.8471 1.64708C64.5901 1.8612 64.4759 2.17524 64.4759 2.56065C64.4759 2.87469 64.5616 3.13163 64.7186 3.3172C64.8899 3.51705 65.0897 3.65979 65.3324 3.77399C65.575 3.88818 65.9176 4.00238 66.3316 4.14513C66.8455 4.31642 67.2595 4.47344 67.5878 4.63046C67.9018 4.78748 68.173 5.01587 68.3871 5.31564C68.6013 5.6154 68.7154 6.02937 68.7154 6.54325C68.6869 6.91439 68.6013 7.27125 68.4157 7.59956Z" fill="#292F36"/>
<path d="M77.8799 0.576385V1.41858H75.6102V8.62722H74.5539V1.41858H72.2842V0.576385H77.8799Z" fill="#292F36"/>
<path d="M82.7332 0.576385V5.40117C82.7332 6.18627 82.9045 6.77153 83.2613 7.15695C83.6182 7.52808 84.0893 7.72793 84.7173 7.72793C85.3311 7.72793 85.8022 7.54236 86.1448 7.15695C86.4874 6.77153 86.6587 6.20055 86.6587 5.41545V0.590658H87.7008V5.41545C87.7008 6.51459 87.4295 7.34251 86.8871 7.88495C86.3447 8.44165 85.6166 8.71287 84.7031 8.71287C83.8038 8.71287 83.0758 8.44165 82.5334 7.88495C81.991 7.32824 81.7197 6.51459 81.7197 5.41545V0.590658H82.7332V0.576385Z" fill="#292F36"/>
<path d="M98.4487 6.72871C98.1204 7.32824 97.635 7.7993 97.007 8.12762C96.3646 8.45593 95.6081 8.62722 94.7231 8.62722H92.168V0.576385H94.7231C95.6081 0.576385 96.3789 0.733406 97.007 1.06172C97.635 1.39003 98.1204 1.84682 98.4487 2.46062C98.777 3.07443 98.9341 3.77388 98.9341 4.6018C98.9341 5.41545 98.777 6.12918 98.4487 6.72871ZM97.0498 6.88573C97.6065 6.3433 97.8778 5.58675 97.8778 4.6018C97.8778 3.61686 97.6065 2.86031 97.0498 2.31788C96.4931 1.77544 95.6938 1.50423 94.6374 1.50423H93.1957V7.69938H94.6374C95.6795 7.69938 96.4931 7.42816 97.0498 6.88573Z" fill="#292F36"/>
<path d="M104.244 0.576385V8.62722H103.202V0.576385H104.244Z" fill="#292F36"/>
<path d="M114.465 1.00472C115.065 1.36158 115.536 1.84691 115.879 2.47499C116.221 3.10307 116.392 3.8168 116.392 4.6019C116.392 5.387 116.221 6.10073 115.879 6.72881C115.536 7.35688 115.065 7.84222 114.465 8.19909C113.866 8.55595 113.195 8.72724 112.453 8.72724C111.71 8.72724 111.025 8.55595 110.426 8.19909C109.826 7.84222 109.341 7.35688 108.998 6.72881C108.656 6.10073 108.484 5.387 108.484 4.6019C108.484 3.8168 108.656 3.10307 108.998 2.47499C109.341 1.84691 109.812 1.36158 110.426 1.00472C111.039 0.647855 111.71 0.476562 112.453 0.476562C113.195 0.476562 113.866 0.647855 114.465 1.00472ZM110.954 1.83264C110.511 2.08958 110.169 2.44644 109.926 2.93178C109.683 3.40284 109.555 3.95955 109.555 4.6019C109.555 5.22998 109.683 5.78669 109.926 6.27202C110.169 6.75736 110.511 7.11422 110.954 7.37116C111.396 7.6281 111.882 7.75657 112.438 7.75657C112.981 7.75657 113.48 7.6281 113.923 7.37116C114.365 7.11422 114.708 6.74308 114.951 6.27202C115.193 5.80096 115.322 5.24425 115.322 4.61617C115.322 3.97382 115.193 3.41712 114.951 2.94606C114.708 2.475 114.365 2.10386 113.923 1.84692C113.48 1.58997 112.995 1.4615 112.438 1.4615C111.896 1.44723 111.396 1.5757 110.954 1.83264Z" fill="#292F36"/>
</svg>
